emandoz presents:

Dr. Strangelove [Eng,Ger,Fre,Spa] [emandoz 1-gig rip]



Dr. Strangelove
Audio: English, German, French, Spanish
Subs included
Source: PAL DVD

--------------------------------------------------------------------
Dr. Strangelove (1964)

Video
ID                               : 1
Format                           : MPEG-4 Visual
Format profile                   : Simple@L3
Format settings, BVOP            : No
Format settings, QPel            : No
Format settings, GMC             : No warppoints
Format settings, Matrix          : Default (H.263)
Codec ID                         : V_MPEG4/ISO/ASP
Codec ID/Info                    : Advanced Simple Profile
Duration                         : 1h 30mn
Bit rate                         : 1 074 Kbps
Width                            : 714 pixels
Height                           : 554 pixels
Display aspect ratio             : 1.374
Original display aspect ratio    : 1.375
Frame rate                       : 25.000 fps
Resolution                       : 24 bits
Colorimetry                      : 4:2:0
Scan type                        : Progressive
Bits/(Pixel*Frame)               : 0.109
Stream size                      : 696 MiB (69%)
Writing library                  : XviD 1.1.2 (UTC 2006-11-01)

Audio #1
ID                               : 2
Format                           : Vorbis
Format settings, Floor           : 1
Codec ID                         : A_VORBIS
Duration                         : 1h 30mn
Bit rate mode                    : Constant
Bit rate                         : 112 Kbps
Channel(s)                       : 2 channels
Sampling rate                    : 48.0 KHz
Stream size                      : 72.5 MiB (7%)
Writing library                  : aoTuV Beta 5 (UTC 2006-10-24)
Language                         : English

Audio #2
ID                               : 3
Format                           : Vorbis
Format settings, Floor           : 1
Codec ID                         : A_VORBIS
Duration                         : 1h 30mn
Bit rate mode                    : Constant
Bit rate                         : 112 Kbps
Channel(s)                       : 2 channels
Sampling rate                    : 48.0 KHz
Stream size                      : 72.5 MiB (7%)
Writing library                  : aoTuV Beta 5 (UTC 2006-10-24)
Language                         : German

Audio #3
ID                               : 4
Format                           : Vorbis
Format settings, Floor           : 1
Codec ID                         : A_VORBIS
Duration                         : 1h 30mn
Bit rate mode                    : Constant
Bit rate                         : 112 Kbps
Channel(s)                       : 2 channels
Sampling rate                    : 48.0 KHz
Stream size                      : 72.5 MiB (7%)
Writing library                  : aoTuV Beta 5 (UTC 2006-10-24)
Language                         : French

Audio #4
ID                               : 5
Format                           : Vorbis
Format settings, Floor           : 1
Codec ID                         : A_VORBIS
Duration                         : 1h 30mn
Bit rate mode                    : Constant
Bit rate                         : 112 Kbps
Channel(s)                       : 2 channels
Sampling rate                    : 48.0 KHz
Stream size                      : 72.5 MiB (7%)
Writing library                  : aoTuV Beta 5 (UTC 2006-10-24)
Language                         : Spanish

Subs
English, French, German, Polish, Czech, Hungarian, Hindi, Turkish, Arabic, Danish, Swedish, Finnish, Dutch, Norwegian, Icelandic, Portugese, Greek, Hebrew, Spanish, Italian, Bulgarian
--------------------------------------------------------------------


Screenshots:
 
http://img30.imageshack.us/img30/458/image001fws.jpg 
http://img22.imageshack.us/img22/3117/image002tbh.jpg 
http://img25.imageshack.us/img25/2391/image003djq.jpg 
http://img30.imageshack.us/img30/7982/image004qkl.jpg